<svg xmlns="http://www.w3.org/2000/svg" viewBox="0 0 512 512" style="width:256px;height:256px"><path d="M135.288 43.144v333.732c-16.582-6.093-36.179-7.908-56.37-4.002-48.504 9.332-81.902 47.602-74.598 85.438 7.293 37.856 52.506 60.956 101 51.614 43.037-8.291 74.12-39.375 75.458-72.772h.276V189.293l281.875-30.914v177.509c-16.593-6.082-36.169-7.877-56.36-3.981-48.515 9.32-81.891 47.592-74.62 85.437 7.293 37.846 52.496 60.946 101.001 51.594 43.047-8.28 74.142-39.375 75.458-72.751h.276V0L135.288 43.144zm327.64 89.004l-281.875 30.913v-37.613L462.928 90.49v41.658z" fill="#4b4b4b"/></svg>