<!--?xml version="1.0" encoding="utf-8"?-->
<!-- Generator: Adobe Illustrator 22.1.0, SVG Export Plug-In . SVG Version: 6.00 Build 0)  -->
<svg version="1.1" id="_x32_" xmlns="http://www.w3.org/2000/svg" xmlns:xlink="http://www.w3.org/1999/xlink" x="0px" y="0px" viewBox="0 0 608.479 800" style="enable-background:new 0 0 608.479 800;" xml:space="preserve">
<style type="text/css">
	.st0{fill:#FFE573;}
</style>
<g>
	<path class="st0" d="M603.173,175.943c-3.575-0.505-8.669-1.011-12.75-1.517c-4.082-0.517-26.019-6.128-26.019-6.128
		s-3.563-7.139,0.518-8.162c4.07-1.013,7.656-6.117,7.656-8.67s-2.046-5.599-4.598-4.08c-2.541,1.528-9.692,6.128-11.727,6.633
		c-2.046,0.518-12.256,5.611-18.36,8.67c-6.129,3.069-12.762,16.325-12.762,18.36c0,0-1.093,0.839-3.483,2.875
		c-0.369-0.897-0.828-1.495-1.426-1.633l-4.024,0.805c-1.196-1.599-2.415-2.622-3.576-2.622c-4.346,0-56.508,7.611-56.508,7.611
		s-7.611-2.185-13.038-3.254c-5.438-1.093-35.859-26.098-35.859-26.098s-4.345-10.864-7.61-14.118
		c-3.254-3.265-10.865,1.093-10.865,1.093l-40.205-10.877c0,0-5.496-8.622-11.152-15.209c-1.001-1.174-2-2.277-2.978-3.266
		c-1.368-1.368-3.817-1.954-6.807-2.046c1.035-4.564,7.933-13.337,13.338-17.131c5.863-4.104,5.288-14.072,5.863-17.602
		c8.22-1.759,11.739-16.417,10.566-18.177c-1.759,1.76-4.692,3.519-5.864-1.173c-1.771-12.91-8.795-19.947-8.795-19.947
		c-1.77-10.566-15.257-15.256-18.787-14.67c-3.506,0.586-2.333-3.518-9.956-7.623c-7.634-4.104-16.429-2.932-24.649,2.932
		c-8.209,0-14.073,7.036-12.9,9.967c-12.325,4.703-15.257,24.053-16.429,31.687c-1.173,7.621,1.759,18.774,8.22,26.982
		c-1.77,7.037,7.611,12.314,7.611,12.314s0.598-5.277,0-12.314c0.598,7.037,2.437,13.774,2.437,13.774s1.392,18.314,1.461,23.534
		L273.506,129l-4.288,1.483c0,0-26.098,1.093-31.514,6.519c-5.438,5.438-16.303,20.649-16.303,20.649l-35.86,8.692
		c0,0-7.61,0-7.61,3.266c-2.161,0-28.25-17.384-28.25-17.384l-35.859-27.167c0,0-0.804,0.712-2.126,1.966l-8.737-9.21
		c0,0-0.851,0.885-2.219,2.438c-3.058-5.807-7.45-14.337-7.933-16.2c-0.713-2.897-10.14-10.865-10.14-10.865
		s-9.416-5.794-13.763-6.529c-4.345-0.725-5.794,0-10.14,1.448c-0.07,0.035-0.137,0.07-0.207,0.104L3.014,2.108
		C2.889,1.924,2.464,1.982,2.073,2.235C1.67,2.487,1.429,2.843,1.555,3.027l53.944,87.585c-2.218,2.759-3.46,6.829-3.977,8.358
		c-0.714,2.138,4.219,3.576,9.22,0.138l0.057,0.114c-3.506,6.289-4.886,7.749-2.035,9.888c-0.724,5.081-0.724,5.806,2.174,7.979
		c0,4.347,2.172,10.14,5.07,10.865c2.173,1.448,8.692,10.864,16.66,10.864c1.149,0,2.172,0.127,3.115,0.31
		c-3.897,5.725-7.185,11.635-8.186,16.349c2.793,2.805,5.462,4.794,7.587,6.162c-1.494,3.438-2.529,6.852-2.874,10.14
		c8.692,13.049,70.626,42.378,82.583,45.632c11.958,3.265,60.842-2.173,60.842-2.173l4.357,97.805c0,0-13.153,79.744-16.291,91.276
		c-3.265,11.956,19.545,47.816,19.545,47.816c0,29.34,33.686,210.809,33.686,215.144c0,4.346,2.185,20.648,2.185,24.995
		c0,4.346-1.104,8.703-2.185,14.13c-1.081,5.438-5.427,14.128-5.427,18.464c0,2.299,3.024,5.174,7.313,7.565l-0.817,2.219
		c0,0-18.763,24.396-26.27,28.144c-7.508,3.749-15.015,13.141-15.015,13.141s-1.874,11.256,11.267,13.129
		c13.13,1.886,35.642-7.508,50.657-20.637l11.255-3.749l7.52-7.518c0,0,2.058-14.453,1.597-24.984
		c1.518-0.471,2.484-0.782,2.484-0.782l1.081-9.784l-7.611-132.56L301.8,463.001l15.223,124.962l8.692,118.443l3.265,24.994
		c0,0,1.162,1.046,3.07,2.461c-2.598,9.175,0.667,32.007,0.667,32.007l7.496,7.497l11.256,3.759
		c15.027,13.141,37.538,22.511,50.679,20.637c13.129-1.874,11.255-13.129,11.255-13.129s-7.507-9.394-15.015-13.141
		c-7.507-3.76-26.27-28.146-26.27-28.146l-3.358-9.22c5.772-3.54,10.199-7.07,10.199-7.07l-2.174-22.822l-8.692-102.152
		c0,0,1.093-11.945,1.093-15.21c0-3.253-3.266-14.13-3.266-14.13l13.038-111.912c0,0,9.783-8.692,11.956-11.956
		c2.172-3.266,6.53-57.589,3.265-69.547c-3.265-11.945-22.822-80.411-22.822-80.411l16.291-82.583l57.601,23.903l64.107-3.254
		c0,0,9.784-8.692,10.865-13.037c1.081-2.036,1.563-4.726,1.771-7.669c2.943-0.299,14.474-11.382,16.406-13.807
		c2.036-2.542,18.878-1.013,25.5-1.529c6.634-0.506,15.303-3.565,18.867-6.634c3.576-3.058,5.105-4.07,5.105-4.07
		s7.139-2.046,9.175-2.552c2.046-0.506,9.185-2.034,7.657-4.587C608.783,180.542,606.749,176.461,603.173,175.943z" style="fill: rgb(236, 191, 9);"></path>
</g>
</svg>
