<svg xmlns="http://www.w3.org/2000/svg" viewBox="0 0 303.301 800" style="width:190px"><path d="M90.217 471.62c-12.892-51.938 29.792-118.645 94.739-118.645 64.943 0 117.587 52.638 117.587 117.576 0 64.942-64.348 139.973-144.223 137.76-104.924 0-155.697-75.089-157.507-145.524-2.225-85.412 63.429-135.092 123.842-203.834 26.445-30.089 144.721-191.414 75.67-201.099-35.986-5.05-50.884 47.252-45.127 89.482 9.337 68.457 56.393 491.832 60.962 544.947 4.478 52.336-24.608 96.024-75.424 104.263-41.047 6.67-77.666-9.971-99.847-42.14-7.763-13.312-13.015-30.828-11.143-45.918 3.033-24.282 19.837-44.314 44.321-44.314 24.483 0 46.741 19.959 44.309 44.314-.924 9.44-8.48 27.348-19.792 30.179-11.317 2.825-9.994 6.856-5.555 15.74 4.439 8.868 27.724 17.752 53.244 9.983 25.521-7.769 45.481-43.267 37.723-98.73-7.78-55.476-36.764-331.556-42.313-354.846-5.543-23.295-16.939-147.412-19.77-169.026-3.324-25.514 3.431-134.643 72.347-139.654 66.635-4.849 98.994 124.727 15.56 223.794-44.613 52.976-101.416 100.418-134.694 161.419-33.273 61.019-27.729 147.548 27.729 177.491 55.463 29.965 116.483 3.341 135.338-22.181 18.862-25.509 33.099-89.33-7.757-123.129-22.354-18.493-58.043-20.836-83.642-.029-17.752 14.411-26.663 28.844-26.053 46.719.959 28.217 17.904 41.249 13.84 46.445-7.039 8.99-34.695-2.13-44.364-41.043z" fill="#f7f7f7"/></svg>