<svg version="1.1" id="_x33_" xmlns="http://www.w3.org/2000/svg" x="0" y="0" viewBox="0 0 800 469.502" xml:space="preserve"><style>.st0{fill:#040000}.st1{fill:#231815}</style><path class="st0" d="M115.435 365.161c0 2.647-2.369 4.799-5.293 4.799H12.755c-2.919 0-5.288-2.152-5.288-4.799v-28.793c0-2.651 2.369-4.797 5.288-4.797h97.387c2.924 0 5.293 2.146 5.293 4.797v28.793z"/><path class="st1" d="M24.936 435.942h.88l1.946-74.381H14.116l1.952 74.381h.869v3.2h-1.828l.879 13.594h9.907l.868-13.594h-1.827zm77.703 0h1.475l1.951-74.381H92.42l1.946 74.381h.278v3.2h-1.827l.869 13.594h9.906l.874-13.594h-1.827z"/><path class="st0" d="M758.989 189.318H376.291v-2.192h393.395s17.955-20.265 17.955-38.33c0-35.909-21.943-55.854-47.879-55.854S527.903 78.976 503.968 78.976c-23.944 0-33.915-13.964-41.895-21.944-7.98-7.982-25.936-55.859-25.936-55.859h-89.854l-1.107 185.952h19.147v2.192H236.552v11.528l-17.732 15.076v40.783c0 14.189-10.636 19.507-15.071 19.507H191.34c-7.99 0-7.99 4.434-7.99 7.983v31.03s38.906.779 39.239.779c.332 0 0 3.988 0 3.988h20.95c10.641 0 21.61 17.958 21.61 17.958h3.322l2.046 80.133h-2.706l-3.327 11.967v8.867h5.983v11.416l1.664.998h2.095l-.76 3.799a7.46 7.46 0 00-2.637 5.705 7.494 7.494 0 007.498 7.494c.77 0 1.52-.119 2.23-.333a7.89 7.89 0 002.269.333 7.793 7.793 0 007.795-7.796c0-3.854-2.79-7.041-6.46-7.677.194-.522.377-1.028.557-1.524h3.704l3.993-2.329v-18.619l-1.331-2.329 1.435-30 38.608-79.001c14.301.094 32.446.273 32.446.273v-8.975h15.289v-8.313l1.664-1.663v-8.313h40.902c1.997-1.997 20.945-18.286 35.907-18.286h260.086l2.662 6.977h17.29l5.983 9.313h14.301s-3.664 15.96 0 16.626l6.317 99.117-.998 1.664v19.949l1.996.998h2.696l-.74 3.702a6.913 6.913 0 00-2.438 5.281 6.933 6.933 0 008.992 6.625 7.219 7.219 0 009.316-6.906c0-3.56-2.582-6.507-5.984-7.098.224-.581.422-1.14.616-1.684l4.499-2.25v-17.62l-1.664-1.882 6.202-114.414L798 286.85v-71.82c0-25.712-25.712-25.712-39.011-25.712zM293.713 373.245l1.698-35.296h3.654c0-3.995 7.32-18.956 18.954-18.956h.606l-24.912 54.252z"/><path class="st1" d="M83.62 119.503s3.953 6.458 4.568 7.381c.616.919-.75 2.548-1.644.676-.894-1.877-3.356-5.368-3.356-5.368l-7.752 4.777s-.64-1.294-.07-1.325c.571-.03 6.803-4.735 6.803-4.735s-.452-1.306.288-1.723c.741-.423 1.163.317 1.163.317z"/><path class="st1" d="M263.973 437.643c-9.122 0-40.321-7.608-40.321-7.608l-4.499-11.818 10.592-3.397s-35.753-79.875-36.513-84.441c-.765-4.563-9.132-20.543-18.258-25.866-8.412-4.903-46.539-14.684-54.305-20.727-.135-8.886-.308-24.238.099-23.016.571 1.711 7.419 5.703 7.419 5.703l44.09 5.986s.214-1.331.62-3.319c2.94 1.155 6.779 2.095 8.919.38 1.524-6.086 1.996-26.434 1.996-26.434l-8.903-2.091-.015-1.797-37.003-6.954s-3.997-2.282-5.711-2.282c-1.707 0-25.096-34.164-25.91-38.69-.799-4.531-4.742-8.898-4.742-8.898l2.497-6.984-11.59-3.116s-.56-5.398-.6-6.249c-.05-.858 1.842-2.954.6-4.888-1.241-1.937-.849-5.386-.849-5.386s4.156-2.497 5.849-2.872c1.699-.375 1.564-2.938.949-3.762-.616-.827-2.105-7.608-1.579-8.486.526-.887-1.232-1.651-1.589-3.062-.362-1.41-2.17-3.317-.849-5.385 1.321-2.066-.005-4.052-.005-4.052s-5.845-.189-7.816-.571c-1.966-.385-6.858-10.354-6.858-10.354 3.203-11.756-12.573-17.352-24.813-9.425 0 0-9.286-1.929-17.39 7.054-8.109 8.993-10.572 16.548-8.243 28.421 2.328 11.88 9.177 15.522 6.41 20.999-3.709 7.344 3.869 12.179 9.201 15.9 5.338 3.725-1.718 10.942 4.3 16.923-1.926 6.95-1.837 8.658 1.818 13.045-1.619 1.795-2.011 5.244.924 6.805-2.076 4.105-4.629 9.954-5.994 13.07-1.753 4.01 4.251 5.956 8.506 1.254-.65 10.971 5.695 24.019 5.695 25.335 0 1.944.76 10.651.76 10.651s-15.13 38.024-17.067 39.964c-1.947 1.944-33.041 14.579-36.935 17.01C2.973 326.64 2 328.098 2 334.414v36.445s2.92 3.402 4.861 4.373c1.942.973 3.402 2.92 3.402 2.92v-42.281s102.774 1.701 104.477 0l.238-1.822 32.61 3.938s6.848 6.085 10.647 6.085c3.803 0 0 9.13 2.284 11.411 2.279 2.282 28.91 72.271 28.91 72.271l5.864-1.885c1.589 4.65 3.263 9.814 3.263 11.013 0 2.282.76 18.256.76 18.256s13.69 2.284 19.013 1.524c5.323-.765 14.46-2.279 14.46-2.279s11.411-2.289 19.778-4.568c8.373-2.284 16.735-3.049 16.735-3.049s3.798-9.123-5.329-9.123z"/><path class="st0" d="M174.303 242.693s16.709 2.091 20.195 5.571c3.481 3.481 12.528 10.446 16.709 13.921 4.176 3.483 2.865 3.483 2.865 4.789 0 1.308.263 8.357.263 8.357s-2.086 1.045-3.128-3.394l-1.047-4.442s.785 7.051-.522 7.573c-1.311.524-2.085-1.045-2.348-3.397l-.263-2.348-3.913-1.303s-8.094-1.045-11.228-4.963c-3.133-3.913-7.309-6.788-7.309-6.788l-9.921.787-.353-14.363z"/></svg>