<svg xmlns="http://www.w3.org/2000/svg" viewBox="0 0 685.518 800"><path d="M683.804 309.127c0-7.295-19.203-19.353-104.319-28.452-16.086-1.718-36.357-2.429-59.229-2.419-3.619-9.014-6.471-16.108-7.703-19.101-.075-.173-.138-.299-.202-.465 18.046-5.894 36.432-12.9 49.627-20.324 35.012-19.699 70.765-50.337 86.085-67.117 15.319-16.781 24.794-55.443-10.945-62.01-35.741-6.566-78.054-9.481-86.813-24.803 23.349-21.153 86.813-78.058 86.813-78.058V2l-156.85 1.458L228.31 247.806c-6.748 2.152-9.211 5.146-9.211 5.146v3.783l-28.44 27.588 6.561 10.214s8.332-.612 21.879-1.612v3.66c-21.867 1.891-40.466 3.497-53.976 4.515-77.326 5.837-108.705 8.756-108.705 8.756l-2.187 17.509s13.861 18.235 9.488 35.015c-4.373 16.78-11.675 28.452-30.639 31.371-18.964 2.919-29.909 6.563-30.638 12.401-.729 5.837-.729 29.909-.729 29.909 2.915 1.461 3.644 16.78 3.644 16.78l94.831 29.91.791.216c7.579 13.774 24.18 51.84 24.745 121.612-4.373 4.376-2.186 5.835-7.289 5.106-5.115-.729-11.675 17.512 5.102 24.808l-1.458 18.963s-3.645 8.757-7.301 9.485c-3.644.729-4.373 13.133 6.573 13.133 10.945 0 10.945-8.753 10.945-8.753s6.56-11.675 8.018-14.594c1.458-2.915 4.373-6.563 4.373-6.563l-.729-13.133s6.573-5.837 5.844-15.319c-.729-9.485.729-75.138 1.458-83.894.616-7.314 2.262-22.768 10.016-34.038 22.734 6.34 48.786 13.607 72.613 20.267 3.016 4.823 6.346 12.278 7.1 22.527 1.458 19.696-3.645 35.015-7.302 43.771-3.644 8.753-12.391 63.467 2.2 79.515-3.657 1.461-3.657 5.105-3.657 5.105l-9.476 8.757.503 16.635c-5.115.449-11.624 1.191-16.55 2.331-9.488 2.19-9.061 4.113-2.928 6.567 3.947 1.577 12.58-.257 19.68-2.274l.025.814 6.321 2.84a71.113 71.113 0 00-4.135.811c-9.488 2.19-9.048 4.112-2.916 6.566 3.796 1.52 11.964-.132 18.901-2.058l4.977 2.228c-.942.176-1.86.358-2.727.556-9.475 2.19-9.048 4.112-2.915 6.567 3.582 1.432 11.021.054 17.669-1.722l21.729 9.746 28.452-4.376.729-19.696v-7.296c-2.928-3.647-2.928-9.485-2.928-9.485h-7.289s0-8.753.729-10.943c.729-2.19 10.217-18.967 8.759-33.557-1.458-14.59-9.488-56.901-12.404-70.762-2.915-13.861-2.187-25.536.729-29.18 1.37-1.712 4.021-3.264 6.459-4.427 3.004.854 4.838 1.386 5.215 1.508 4.373 1.461 11.675 2.919 16.048 1.461 4.373-1.461 31.367-4.38 40.843 1.458 9.488 5.834 35.754 29.18 40.127 75.87 4.385 46.686 3.657 87.539 2.915 94.106-.729 6.566 1.457 29.18 9.488 33.557 0 0 0 21.889-3.644 20.428-3.645-1.461-5.844 2.19-5.844 2.19l.729 21.15s-2.187 5.838 12.403 6.573c14.591.729 18.247-2.922 18.247-2.922l5.102-19.696-2.915-8.027.729-20.425s10.204-5.105 10.933-11.671c.741-6.567-1.458-13.13-1.458-13.13s-9.475 1.458-11.662-5.108c-2.199-6.567 2.915-74.41 6.56-93.377 3.644-18.97 33.554-75.874 40.127-81.708 6.56-5.834 5.831-13.132 5.831-13.132l9.488-.729 2.187-9.481 48.145-9.485-.729-14.587s7.302-6.57 9.488-9.488c0 0 5.831 34.286 3.645 52.527-2.186 18.237-2.186 56.9 6.561 61.28l-.729 18.967 2.199 2.916s-.013 12.406 2.916 13.865c2.915 1.457 15.319 2.915 15.319 2.915s5.831-1.458 5.831-3.648c0-2.19-1.458-13.858-2.915-16.048-4.373-6.567-3.644-19.696-3.644-19.696s10.204-2.919 9.475-9.485c-.728-6.566-2.186-14.587-15.319-15.32 1.47-25.532 8.03-110.16 42.313-137.15 10.217 0 41.585-1.458 44.501-1.458 2.916 0 8.03-5.108 6.572-17.508l5.103-4.376-.001-103.596zM278.931 648.35l-9.488-2.187s-2.187-11.671-13.132-11.671c-2.187-18.97 1.457-45.961 1.457-45.961s12.09-37.403 7.629-59.671c2.338.653 4.612 1.291 6.811 1.907-.163 5.742-.34 16.648.151 28.583.729 17.509 5.844 48.876 7.289 61.277 1.469 12.403-.717 27.723-.717 27.723zm128.008-366.129c.013-1.147-.114-2.225-.402-3.221 25.084-1.894 42.514-3.242 43.822-3.431 2.412-.345 19.604-4.267 40.767-10.377l5.103 13.305c-27.724.538-58.187 1.898-89.29 3.724z" fill="#040000"/><path d="M382.973 444.999h-11.222c-1.094 5.47-12.027 16.412-12.027 16.412l12.857.274s-.427 1.405-1.195 2.472c18.21-15.077 15.143-43.233 15.143-43.233.277 13.952-3.556 24.075-3.556 24.075zm-71.18 33.249c-4.914 2.737-6.786 9.426-6.786 9.426l11.851.729s.327 3.591.327 5.781c-.114-12.395 8.068-15.263 8.068-15.263l-1.872.56-11.588-1.233zm59.593-14.091c-.439.355-.816.741-1.269 1.084.503-.17.917-.6 1.269-1.084zm-9.299-74.055L63.719 330.284l298.367 62.735v-2.917zM308.84 480.56L52.774 412.717l-24.066 1.457v10.943l274.289 76.6v-10.214c-.001-6.566 5.843-10.943 5.843-10.943zm285.964-153.196v111.615c2.186-2.19 10.217-5.834 10.217-5.834l-1.458-107.97c-3.657 0-8.759 2.189-8.759 2.189zm32.824-5.837c12.404.729 40.856-5.834 40.856-5.834v100.671s-8.747 5.105-11.675 5.837c20.434-2.919 21.892-10.943 21.892-10.943v-99.217c0 .002-24.078 5.11-51.073 9.486zm-42.3 30.642v123.287l3.644-1.458V353.627l-.728-2.918-2.916 1.46zm-32.108 8.753l-.729 128.395s7.302-5.109 11.675-9.486V356.545l-172.169 17.509 161.223-13.132zM316.192 253.54c-1.42-.317-2.463-.528-2.979-.587 0-.001 1.106.213 2.979.587zm72.889 52.668c1.458-6.567 18.235-21.886 14.591-29.181-3.242-6.494-72.286-20.481-87.479-23.488 15.709 3.487 81.585 21.238 84.928 24.581 3.645 3.647-10.581 17.873-13.862 27.359-2.978 8.596-3.204 21.392 1.119 34.578-2.351-10.025-.554-28.181.703-33.849zm.729 37.934c-.541-1.364-.993-2.725-1.432-4.085.376 1.587.841 2.988 1.432 4.085zm111.005-97.734c2.627 3.503 5.592 7.471 9.991 18.292 4.16 10.226 24.744 62.525 35.891 90.857l2.149-.472s-32.825-82.434-37.94-94.834c-5.102-12.404-8.018-14.591-10.933-18.97-2.928-4.376-56.903-135.689-62.019-149.548 0 0-1.357-1.652-2.979-2.708 17.67 44.406 60.373 149.413 63.452 154.053.779 1.187 1.571 2.236 2.388 3.33z" fill="#fff"/></svg>