<!--?xml version="1.0" encoding="utf-8"?-->
<!-- Generator: Adobe Illustrator 22.1.0, SVG Export Plug-In . SVG Version: 6.00 Build 0)  -->
<svg version="1.1" id="_x33_" xmlns="http://www.w3.org/2000/svg" xmlns:xlink="http://www.w3.org/1999/xlink" x="0px" y="0px" viewBox="0 0 800 469.502" style="enable-background:new 0 0 800 469.502;" xml:space="preserve">
<style type="text/css">
	.st0{fill:#040000;}
	.st1{fill:#231815;}
</style>
<g>
	<path class="st0" d="M115.435,365.161c0,2.647-2.369,4.799-5.293,4.799H12.755c-2.919,0-5.288-2.152-5.288-4.799v-28.793
		c0-2.651,2.369-4.797,5.288-4.797h97.387c2.924,0,5.293,2.146,5.293,4.797V365.161z"></path>
	<g>
		<polygon class="st1" points="24.936,435.942 25.816,435.942 27.762,361.561 14.116,361.561 16.068,435.942 16.937,435.942 
			16.937,439.142 15.109,439.142 15.988,452.736 25.895,452.736 26.763,439.142 24.936,439.142 		"></polygon>
	</g>
	<g>
		<polygon class="st1" points="102.639,435.942 104.114,435.942 106.065,361.561 92.42,361.561 94.366,435.942 94.644,435.942 
			94.644,439.142 92.817,439.142 93.686,452.736 103.592,452.736 104.466,439.142 102.639,439.142 		"></polygon>
	</g>
	<path class="st0" d="M758.989,189.318H376.291v-2.192h393.395c0,0,17.955-20.265,17.955-38.33
		c0-35.909-21.943-55.854-47.879-55.854S527.903,78.976,503.968,78.976c-23.944,0-33.915-13.964-41.895-21.944
		c-7.98-7.982-25.936-55.859-25.936-55.859h-89.854l-1.107,185.952h19.147v2.192c-73.526,0-127.771,0-127.771,0v11.528
		l-17.732,15.076c0,0,0,26.598,0,40.783c0,14.189-10.636,19.507-15.071,19.507c-4.434,0-4.434,0-12.409,0
		c-7.99,0-7.99,4.434-7.99,7.983c0,3.547,0,31.03,0,31.03s38.906,0.779,39.239,0.779c0.332,0,0,3.988,0,3.988s10.304,0,20.95,0
		c10.641,0,21.61,17.958,21.61,17.958h3.322l2.046,80.133h-2.706l-3.327,11.967v8.867h5.983v11.416l1.664,0.998h2.095l-0.76,3.799
		c-1.614,1.37-2.637,3.416-2.637,5.705c0,4.137,3.352,7.494,7.498,7.494c0.77,0,1.52-0.119,2.23-0.333
		c0.714,0.214,1.475,0.333,2.269,0.333c4.305,0,7.795-3.486,7.795-7.796c0-3.854-2.79-7.041-6.46-7.677
		c0.194-0.522,0.377-1.028,0.557-1.524h3.704l3.993-2.329v-18.619l-1.331-2.329l1.435-30l38.608-79.001
		c14.301,0.094,32.446,0.273,32.446,0.273v-8.975h15.289v-8.313l1.664-1.663v-8.313c0,0,35.916,0,40.902,0
		c1.997-1.997,20.945-18.286,35.907-18.286c14.967,0,260.086,0,260.086,0l2.662,6.977h17.29l5.983,9.313h14.301
		c0,0-3.664,15.96,0,16.626l6.317,99.117l-0.998,1.664v19.949l1.996,0.998h2.696l-0.74,3.702c-1.495,1.276-2.438,3.163-2.438,5.281
		c0,3.829,3.099,6.937,6.932,6.937c0.72,0,1.41-0.114,2.06-0.312c0.665,0.198,1.371,0.312,2.101,0.312
		c3.982,0,7.215-3.232,7.215-7.218c0-3.56-2.582-6.507-5.984-7.098c0.224-0.581,0.422-1.14,0.616-1.684l4.499-2.25v-17.62
		l-1.664-1.882l6.202-114.414L798,286.85c0,0,0-46.106,0-71.82C798,189.318,772.288,189.318,758.989,189.318z M293.713,373.245
		l1.698-35.296c0,0,0,0,3.654,0c0-3.995,7.32-18.956,18.954-18.956h0.606L293.713,373.245z"></path>
	<g>
		<path class="st1" d="M83.62,119.503c0,0,3.953,6.458,4.568,7.381c0.616,0.919-0.75,2.548-1.644,0.676
			c-0.894-1.877-3.356-5.368-3.356-5.368l-7.752,4.777c0,0-0.64-1.294-0.07-1.325c0.571-0.03,6.803-4.735,6.803-4.735
			s-0.452-1.306,0.288-1.723C83.198,118.763,83.62,119.503,83.62,119.503z"></path>
		<path class="st1" d="M263.973,437.643c-9.122,0-40.321-7.608-40.321-7.608l-4.499-11.818l10.592-3.397
			c0,0-35.753-79.875-36.513-84.441c-0.765-4.563-9.132-20.543-18.258-25.866c-8.412-4.903-46.539-14.684-54.305-20.727
			c-0.135-8.886-0.308-24.238,0.099-23.016c0.571,1.711,7.419,5.703,7.419,5.703l44.09,5.986c0,0,0.214-1.331,0.62-3.319
			c2.94,1.155,6.779,2.095,8.919,0.38c1.524-6.086,1.996-26.434,1.996-26.434l-8.903-2.091c-0.01-1.122-0.015-1.797-0.015-1.797
			l-37.003-6.954c0,0-3.997-2.282-5.711-2.282c-1.707,0-25.096-34.164-25.91-38.69c-0.799-4.531-4.742-8.898-4.742-8.898
			l2.497-6.984l-11.59-3.116c0,0-0.56-5.398-0.6-6.249c-0.05-0.858,1.842-2.954,0.6-4.888c-1.241-1.937-0.849-5.386-0.849-5.386
			s4.156-2.497,5.849-2.872c1.699-0.375,1.564-2.938,0.949-3.762c-0.616-0.827-2.105-7.608-1.579-8.486
			c0.526-0.887-1.232-1.651-1.589-3.062c-0.362-1.41-2.17-3.317-0.849-5.385c1.321-2.066-0.005-4.052-0.005-4.052
			s-5.845-0.189-7.816-0.571c-1.966-0.385-6.858-10.354-6.858-10.354c3.203-11.756-12.573-17.352-24.813-9.425
			c0,0-9.286-1.929-17.39,7.054c-8.109,8.993-10.572,16.548-8.243,28.421c2.328,11.88,9.177,15.522,6.41,20.999
			c-3.709,7.344,3.869,12.179,9.201,15.9c5.338,3.725-1.718,10.942,4.3,16.923c-1.926,6.95-1.837,8.658,1.818,13.045
			c-1.619,1.795-2.011,5.244,0.924,6.805c-2.076,4.105-4.629,9.954-5.994,13.07c-1.753,4.01,4.251,5.956,8.506,1.254
			c-0.65,10.971,5.695,24.019,5.695,25.335c0,1.944,0.76,10.651,0.76,10.651s-15.13,38.024-17.067,39.964
			c-1.947,1.944-33.041,14.579-36.935,17.01C2.973,326.64,2,328.098,2,334.414c0,6.319,0,36.445,0,36.445s2.92,3.402,4.861,4.373
			c1.942,0.973,3.402,2.92,3.402,2.92v-42.281c0,0,102.774,1.701,104.477,0l0.238-1.822l32.61,3.938c0,0,6.848,6.085,10.647,6.085
			c3.803,0,0,9.13,2.284,11.411c2.279,2.282,28.91,72.271,28.91,72.271l5.864-1.885c1.589,4.65,3.263,9.814,3.263,11.013
			c0,2.282,0.76,18.256,0.76,18.256s13.69,2.284,19.013,1.524c5.323-0.765,14.46-2.279,14.46-2.279s11.411-2.289,19.778-4.568
			c8.373-2.284,16.735-3.049,16.735-3.049S273.1,437.643,263.973,437.643z"></path>
	</g>
	<path class="st0" d="M174.303,242.693c0,0,16.709,2.091,20.195,5.571c3.481,3.481,12.528,10.446,16.709,13.921
		c4.176,3.483,2.865,3.483,2.865,4.789c0,1.308,0.263,8.357,0.263,8.357s-2.086,1.045-3.128-3.394
		c-1.047-4.442-1.047-4.442-1.047-4.442s0.785,7.051-0.522,7.573c-1.311,0.524-2.085-1.045-2.348-3.397
		c-0.263-2.348-0.263-2.348-0.263-2.348l-3.913-1.303c0,0-8.094-1.045-11.228-4.963c-3.133-3.913-7.309-6.788-7.309-6.788
		l-9.921,0.787L174.303,242.693z"></path>
</g>
</svg>
