<!--?xml version="1.0" encoding="utf-8"?-->
<!-- Generator: Adobe Illustrator 22.1.0, SVG Export Plug-In . SVG Version: 6.00 Build 0)  -->
<svg version="1.1" id="_x34_" xmlns="http://www.w3.org/2000/svg" xmlns:xlink="http://www.w3.org/1999/xlink" x="0px" y="0px" viewBox="0 0 685.518 800" style="enable-background:new 0 0 685.518 800;" xml:space="preserve">
<style type="text/css">
	.st0{fill:#040000;}
	.st1{fill:#FFFFFF;}
</style>
<g>
	<path class="st0" d="M683.804,309.127c0-7.295-19.203-19.353-104.319-28.452c-16.086-1.718-36.357-2.429-59.229-2.419
		c-3.619-9.014-6.471-16.108-7.703-19.101c-0.075-0.173-0.138-0.299-0.202-0.465c18.046-5.894,36.432-12.9,49.627-20.324
		c35.012-19.699,70.765-50.337,86.085-67.117c15.319-16.781,24.794-55.443-10.945-62.01c-35.741-6.566-78.054-9.481-86.813-24.803
		c23.349-21.153,86.813-78.058,86.813-78.058V2l-156.85,1.458L228.31,247.806c-6.748,2.152-9.211,5.146-9.211,5.146v3.783
		l-28.44,27.588l6.561,10.214c0,0,8.332-0.612,21.879-1.612v3.66c-21.867,1.891-40.466,3.497-53.976,4.515
		c-77.326,5.837-108.705,8.756-108.705,8.756l-2.187,17.509c0,0,13.861,18.235,9.488,35.015
		c-4.373,16.78-11.675,28.452-30.639,31.371c-18.964,2.919-29.909,6.563-30.638,12.401c-0.729,5.837-0.729,29.909-0.729,29.909
		c2.915,1.461,3.644,16.78,3.644,16.78l94.831,29.91c0,0,0.289,0.079,0.791,0.216c7.579,13.774,24.18,51.84,24.745,121.612
		c-4.373,4.376-2.186,5.835-7.289,5.106c-5.115-0.729-11.675,17.512,5.102,24.808l-1.458,18.963c0,0-3.645,8.757-7.301,9.485
		c-3.644,0.729-4.373,13.133,6.573,13.133c10.945,0,10.945-8.753,10.945-8.753s6.56-11.675,8.018-14.594
		c1.458-2.915,4.373-6.563,4.373-6.563l-0.729-13.133c0,0,6.573-5.837,5.844-15.319c-0.729-9.485,0.729-75.138,1.458-83.894
		c0.616-7.314,2.262-22.768,10.016-34.038c22.734,6.34,48.786,13.607,72.613,20.267c3.016,4.823,6.346,12.278,7.1,22.527
		c1.458,19.696-3.645,35.015-7.302,43.771c-3.644,8.753-12.391,63.467,2.2,79.515c-3.657,1.461-3.657,5.105-3.657,5.105
		l-9.476,8.757l0.503,16.635c-5.115,0.449-11.624,1.191-16.55,2.331c-9.488,2.19-9.061,4.113-2.928,6.567
		c3.947,1.577,12.58-0.257,19.68-2.274l0.025,0.814l6.321,2.84c-1.445,0.245-2.852,0.513-4.135,0.811
		c-9.488,2.19-9.048,4.112-2.916,6.566c3.796,1.52,11.964-0.132,18.901-2.058l4.977,2.228c-0.942,0.176-1.86,0.358-2.727,0.556
		c-9.475,2.19-9.048,4.112-2.915,6.567c3.582,1.432,11.021,0.054,17.669-1.722l21.729,9.746l28.452-4.376l0.729-19.696v-7.296
		c-2.928-3.647-2.928-9.485-2.928-9.485h-7.289c0,0,0-8.753,0.729-10.943c0.729-2.19,10.217-18.967,8.759-33.557
		c-1.458-14.59-9.488-56.901-12.404-70.762c-2.915-13.861-2.187-25.536,0.729-29.18c1.37-1.712,4.021-3.264,6.459-4.427
		c3.004,0.854,4.838,1.386,5.215,1.508c4.373,1.461,11.675,2.919,16.048,1.461c4.373-1.461,31.367-4.38,40.843,1.458
		c9.488,5.834,35.754,29.18,40.127,75.87c4.385,46.686,3.657,87.539,2.915,94.106c-0.729,6.566,1.457,29.18,9.488,33.557
		c0,0,0,21.889-3.644,20.428c-3.645-1.461-5.844,2.19-5.844,2.19l0.729,21.15c0,0-2.187,5.838,12.403,6.573
		c14.591,0.729,18.247-2.922,18.247-2.922l5.102-19.696l-2.915-8.027l0.729-20.425c0,0,10.204-5.105,10.933-11.671
		c0.741-6.567-1.458-13.13-1.458-13.13s-9.475,1.458-11.662-5.108c-2.199-6.567,2.915-74.41,6.56-93.377
		c3.644-18.97,33.554-75.874,40.127-81.708c6.56-5.834,5.831-13.132,5.831-13.132l9.488-0.729l2.187-9.481l48.145-9.485
		l-0.729-14.587c0,0,7.302-6.57,9.488-9.488c0,0,5.831,34.286,3.645,52.527c-2.186,18.237-2.186,56.9,6.561,61.28l-0.729,18.967
		l2.199,2.916c0,0-0.013,12.406,2.916,13.865c2.915,1.457,15.319,2.915,15.319,2.915s5.831-1.458,5.831-3.648
		c0-2.19-1.458-13.858-2.915-16.048c-4.373-6.567-3.644-19.696-3.644-19.696s10.204-2.919,9.475-9.485
		c-0.728-6.566-2.186-14.587-15.319-15.32c1.47-25.532,8.03-110.16,42.313-137.15c10.217,0,41.585-1.458,44.501-1.458
		c2.916,0,8.03-5.108,6.572-17.508c5.103-4.376,5.103-4.376,5.103-4.376S683.804,316.422,683.804,309.127z M278.931,648.35
		l-9.488-2.187c0,0-2.187-11.671-13.132-11.671c-2.187-18.97,1.457-45.961,1.457-45.961s12.09-37.403,7.629-59.671
		c2.338,0.653,4.612,1.291,6.811,1.907c-0.163,5.742-0.34,16.648,0.151,28.583c0.729,17.509,5.844,48.876,7.289,61.277
		C281.117,633.03,278.931,648.35,278.931,648.35z M406.939,282.221c0.013-1.147-0.114-2.225-0.402-3.221
		c25.084-1.894,42.514-3.242,43.822-3.431c2.412-0.345,19.604-4.267,40.767-10.377l5.103,13.305
		C468.505,279.035,438.042,280.395,406.939,282.221z"></path>
	<path class="st1" d="M382.973,444.999h-11.222c-1.094,5.47-12.027,16.412-12.027,16.412l12.857,0.274c0,0-0.427,1.405-1.195,2.472
		c18.21-15.077,15.143-43.233,15.143-43.233C386.806,434.876,382.973,444.999,382.973,444.999z M311.793,478.248
		c-4.914,2.737-6.786,9.426-6.786,9.426l11.851,0.729c0,0,0.327,3.591,0.327,5.781c-0.114-12.395,8.068-15.263,8.068-15.263
		l-1.872,0.56L311.793,478.248z M371.386,464.157c-0.439,0.355-0.816,0.741-1.269,1.084
		C370.62,465.071,371.034,464.641,371.386,464.157z M362.087,390.102L63.719,330.284l298.367,62.735V390.102z M308.84,480.56
		L52.774,412.717l-24.066,1.457v10.943l274.289,76.6c0,0,0-3.648,0-10.214C302.996,484.937,308.84,480.56,308.84,480.56z
		 M594.804,327.364c0,0,0,99.943,0,111.615c2.186-2.19,10.217-5.834,10.217-5.834l-1.458-107.97
		C599.906,325.175,594.804,327.364,594.804,327.364z M627.628,321.527c12.404,0.729,40.856-5.834,40.856-5.834v100.671
		c0,0-8.747,5.105-11.675,5.837c20.434-2.919,21.892-10.943,21.892-10.943v-99.217C678.701,312.043,654.623,317.151,627.628,321.527
		z M585.328,352.169v123.287l3.644-1.458V353.627l-0.728-2.918L585.328,352.169z M553.22,360.922l-0.729,128.395
		c0,0,7.302-5.109,11.675-9.486V356.545l-172.169,17.509L553.22,360.922z M316.192,253.54c-1.42-0.317-2.463-0.528-2.979-0.587
		C313.213,252.952,314.319,253.166,316.192,253.54z M389.081,306.208c1.458-6.567,18.235-21.886,14.591-29.181
		c-3.242-6.494-72.286-20.481-87.479-23.488c15.709,3.487,81.585,21.238,84.928,24.581c3.645,3.647-10.581,17.873-13.862,27.359
		c-2.978,8.596-3.204,21.392,1.119,34.578C386.027,330.032,387.824,311.876,389.081,306.208z M389.81,344.142
		c-0.541-1.364-0.993-2.725-1.432-4.085C388.754,341.644,389.219,343.045,389.81,344.142z M500.815,246.408
		c2.627,3.503,5.592,7.471,9.991,18.292c4.16,10.226,24.744,62.525,35.891,90.857l2.149-0.472c0,0-32.825-82.434-37.94-94.834
		c-5.102-12.404-8.018-14.591-10.933-18.97c-2.928-4.376-56.903-135.689-62.019-149.548c0,0-1.357-1.652-2.979-2.708
		c17.67,44.406,60.373,149.413,63.452,154.053C499.206,244.265,499.998,245.314,500.815,246.408z"></path>
</g>
</svg>
